<svg xmlns="http://www.w3.org/2000/svg" version="1.1" xmlns:xlink="http://www.w3.org/1999/xlink" width="512" height="512" x="0" y="0" viewBox="0 0 64 64" style="enable-background:new 0 0 512 512" xml:space="preserve" fill-rule="evenodd"><g><path d="M41.078 61.25H46c8.417 0 15.25-6.833 15.25-15.25V18c0-8.417-6.833-15.25-15.25-15.25H18C9.583 2.75 2.75 9.583 2.75 18v28c0 8.417 6.833 15.25 15.25 15.25h14.75a1.25 1.25 0 0 0 0-2.5H18c-7.037 0-12.75-5.713-12.75-12.75V18c0-7.037 5.713-12.75 12.75-12.75h28c7.037 0 12.75 5.713 12.75 12.75v28c0 7.037-5.713 12.75-12.75 12.75h-4.922a1.25 1.25 0 0 0 0 2.5z" fill="#ffffff" opacity="1" data-original="#000000"></path><path d="M39.835 26.931v4.735c0 .69.56 1.252 1.25 1.252h6.285l-.874 5.482h-5.41a1.25 1.25 0 0 0-1.251 1.25v20.36c0 .691.56 1.252 1.25 1.252s1.25-.561 1.25-1.251V40.9h5.23c.614 0 1.136-.448 1.234-1.053l1.27-7.986a1.25 1.25 0 0 0-1.235-1.445h-6.499v-3.724l-1.25 1.25.032-.056 1.194-1.255c-.063-1.28.12-2.305 1.083-2.39h6.021c.69 0 1.25-.561 1.25-1.251v-7.404a1.25 1.25 0 0 0-.972-1.218c-4.776-1.092-10.205-.748-13.805 1.329-2.626 1.514-4.346 3.903-4.383 7.28v7.439h-5.808c-.69 0-1.25.559-1.25 1.25v7.983c0 .69.56 1.25 1.25 1.25h5.808v19.11c0 .691.56 1.252 1.251 1.252.689 0 1.25-.561 1.25-1.251V39.65c0-.69-.56-1.25-1.25-1.25h-5.808v-5.482h5.808c.69 0 1.25-.561 1.25-1.252V23c.035-3.03 2.032-4.898 4.744-5.875 2.743-.99 6.195-1.102 9.414-.518v5.134h-4.809c-.026 0-.05 0-.076.002-2.295.14-3.613 2.021-3.465 5.013.002.059.01.118.02.175z" fill="#ffffff" opacity="1" data-original="#000000"></path></g></svg>